<?xml version="1.0" standalone="no"?>
<!DOCTYPE svg PUBLIC "-//W3C//DTD SVG 20010904//EN"
 "http://www.w3.org/TR/2001/REC-SVG-20010904/DTD/svg10.dtd">
<svg version="1.0" xmlns="http://www.w3.org/2000/svg"
 width="431.000000pt" height="431.000000pt" viewBox="0 0 431.000000 431.000000"
 preserveAspectRatio="xMidYMid meet">
<metadata>
Created by potrace 1.11, written by Peter Selinger 2001-2013
</metadata>
<g transform="translate(0.000000,431.000000) scale(0.100000,-0.100000)"
fill="#000000" stroke="none">
<path d="M1698 3236 c-36 -40 -48 -61 -48 -84 0 -18 -1 -32 -2 -32 -2 0 -69
18 -149 39 l-147 39 -51 -52 -51 -52 0 -133 0 -133 -27 6 c-16 3 -37 8 -48 11
-15 4 -34 -8 -73 -46 l-52 -51 2 -401 3 -401 98 -25 97 -25 0 -200 0 -201 168
-44 c92 -25 181 -48 199 -53 l32 -9 3 -101 3 -102 65 -16 c36 -10 211 -57 390
-105 179 -48 372 -100 430 -115 l105 -28 53 51 c42 42 52 58 52 85 0 31 2 34
25 28 14 -3 35 -8 48 -11 17 -5 34 5 75 45 l52 50 0 135 c0 74 1 135 3 135 1
0 23 -7 48 -14 l46 -14 52 52 51 52 0 302 c0 166 -3 302 -7 302 -3 0 -218 57
-477 126 -259 70 -481 129 -492 131 -16 4 -35 -9 -73 -47 l-51 -51 0 -199 c0
-181 2 -199 18 -204 9 -3 139 -37 287 -76 149 -40 276 -73 283 -76 6 -2 12
-19 12 -39 0 -34 -1 -35 -27 -29 -16 4 -37 10 -48 14 -16 6 -32 -4 -72 -43
-45 -43 -53 -56 -53 -88 l0 -37 -117 33 c-65 18 -215 58 -333 89 -118 32 -223
60 -232 62 -16 5 -18 24 -18 210 0 112 -3 203 -7 202 -5 -1 -50 8 -100 22
l-93 24 0 134 0 134 38 -7 c20 -4 42 -8 48 -9 6 0 34 21 62 47 l52 48 0 135
c0 124 1 135 18 130 9 -3 51 -14 92 -25 66 -17 362 -96 680 -181 l105 -28 53
51 52 51 0 201 0 200 -238 63 c-130 34 -354 94 -497 132 -143 38 -262 69 -265
69 -3 -1 -26 -25 -52 -53z"/>
</g>
</svg>
